<svg width="24" height="24" viewBox="0 0 24 24" fill="none" xmlns="http://www.w3.org/2000/svg">
<g clip-path="url(#clip0_12506:1587)">
<path d="M12 -0.319092C5.37197 -0.319092 0 5.19608 0 12C0 18.804 5.37197 24.3192 12 24.3192C18.628 24.3192 24 18.804 24 12C24 5.19608 18.628 -0.319092 12 -0.319092ZM15.6004 23.0631C15.0235 23.1777 14.819 22.8135 14.819 22.5026C14.819 22.1221 14.8312 20.862 14.8312 19.3031C14.8312 18.2148 14.4671 17.507 14.0621 17.1429C16.5946 16.8565 19.254 15.8705 19.254 11.3904C19.254 10.118 18.8121 9.0747 18.0839 8.26052C18.1984 7.97003 18.5912 6.78353 17.9693 5.17972C17.9693 5.17972 17.016 4.86468 14.8476 6.3744C13.9393 6.11664 12.9656 5.98572 12 5.98162C11.0303 5.98572 10.0607 6.11255 9.1524 6.3744C6.98398 4.86468 6.02659 5.17972 6.02659 5.17972C5.4088 6.78353 5.79748 7.97003 5.91613 8.26052C5.19195 9.0747 4.74599 10.118 4.74599 11.3904C4.74599 15.8582 7.4013 16.8606 9.92567 17.1552C9.60246 17.4457 9.30788 17.9571 9.20559 18.7099C8.55506 19.0086 6.91033 19.5241 5.89567 17.7402C5.89567 17.7402 5.29424 16.6233 4.15274 16.5415C4.15274 16.5415 3.04398 16.5251 4.07501 17.2493C4.07501 17.2493 4.82373 17.6052 5.33924 18.9513C5.33924 18.9513 6.00614 21.222 9.16877 20.5183C9.17286 21.4879 9.18513 22.2244 9.18513 22.4985C9.18513 22.8094 8.97647 23.1695 8.40777 23.059C3.8868 21.5207 0.634163 17.1511 0.634163 12C0.630071 5.5643 5.71974 0.347802 12 0.347802C18.2803 0.347802 23.3699 5.5643 23.3699 12.0041C23.3699 17.1552 20.1132 21.5207 15.6004 23.0631Z" fill="white"/>
</g>
<defs>
<clipPath id="clip0_12506:1587">
<rect width="24" height="24" fill="white"/>
</clipPath>
</defs>
</svg>
